<?xml version="1.0" standalone="no"?>
<!DOCTYPE svg PUBLIC "-//W3C//DTD SVG 20010904//EN"
 "http://www.w3.org/TR/2001/REC-SVG-20010904/DTD/svg10.dtd">
<svg version="1.0" xmlns="http://www.w3.org/2000/svg"
 width="512.000000pt" height="512.000000pt" viewBox="0 0 512.000000 512.000000"
 preserveAspectRatio="xMidYMid meet">

<g transform="translate(0.000000,512.000000) scale(0.100000,-0.100000)"
fill="#000000" stroke="none">
<path d="M745 5106 c-93 -29 -167 -95 -207 -181 l-23 -50 -3 -1894 -2 -1894
22 -24 c30 -33 80 -31 107 3 l21 27 0 1578 0 1579 1394 2 c1355 3 1394 4 1415
22 27 25 29 86 3 109 -17 16 -98 17 -960 17 l-942 0 0 285 0 285 1374 0 c947
0 1383 -3 1403 -11 15 -5 41 -22 57 -37 52 -49 56 -72 56 -307 l0 -215 -363 0
c-340 0 -365 -1 -380 -18 -24 -27 -22 -85 4 -108 20 -18 43 -19 380 -22 l359
-3 0 -1979 c0 -1374 -3 -1987 -11 -2007 -14 -38 -57 -83 -96 -99 -48 -21
-3538 -21 -3586 0 -39 16 -82 61 -96 99 -7 17 -11 125 -11 273 0 138 -4 253
-10 263 -14 28 -61 44 -93 32 -46 -18 -48 -33 -45 -319 3 -255 4 -269 27 -319
29 -66 111 -143 176 -169 49 -19 97 -19 1850 -19 l1800 0 52 24 c66 29 143
111 169 176 19 49 19 103 19 2355 0 2252 0 2306 -19 2355 -26 65 -103 147
-169 176 l-52 24 -1790 2 c-1424 1 -1798 -1 -1830 -11z m673 -418 l-3 -283
-377 -3 -378 -2 0 214 c0 228 4 252 48 300 51 54 61 55 400 56 l312 0 -2 -282z"/>
<path d="M2197 3969 c-103 -68 -203 -209 -243 -344 -29 -94 -24 -257 9 -360
15 -44 40 -101 56 -127 l29 -46 -28 -12 c-25 -10 -38 -6 -130 40 -113 57 -170
65 -233 35 -19 -9 -87 -69 -150 -134 -162 -165 -167 -192 -76 -373 l49 -98
-23 -48 c-13 -26 -32 -71 -42 -99 l-19 -53 -108 -36 c-190 -63 -203 -83 -203
-324 0 -248 13 -270 204 -331 75 -25 106 -40 112 -54 4 -11 23 -58 43 -103
l35 -84 -55 -110 c-59 -121 -64 -151 -35 -213 23 -48 244 -269 284 -284 56
-21 100 -13 208 40 62 30 111 49 124 46 11 -3 58 -21 105 -40 l85 -36 37 -107
c41 -120 59 -150 109 -179 31 -18 52 -20 219 -20 252 0 262 6 328 199 l37 107
85 36 c47 19 94 37 105 40 13 3 62 -16 124 -46 108 -53 152 -61 208 -40 40 15
261 236 284 284 29 62 24 92 -35 213 l-55 110 35 84 c20 45 39 92 43 103 6 14
37 29 112 54 190 61 199 77 199 331 0 246 -9 261 -198 324 l-108 36 -19 53
c-10 28 -29 73 -42 99 l-23 48 49 98 c91 181 86 208 -76 373 -63 65 -131 125
-150 134 -63 30 -120 22 -233 -35 -92 -46 -105 -50 -130 -40 l-28 12 29 46
c40 64 77 185 85 279 12 160 -50 338 -160 460 -111 122 -197 154 -257 94 l-29
-29 0 -186 0 -186 -180 0 -180 0 0 186 0 186 -29 29 c-41 40 -91 40 -154 -2z
m56 -491 c36 -53 64 -58 307 -58 321 0 322 1 330 235 l5 150 47 -62 c82 -111
114 -258 84 -386 -32 -135 -103 -233 -229 -314 -48 -31 -73 -54 -83 -78 -12
-29 -14 -150 -14 -744 l0 -710 -47 -7 c-61 -9 -125 -9 -185 0 l-48 7 0 170 c0
130 -3 177 -15 198 -23 46 -66 54 -109 20 -26 -20 -26 -21 -26 -160 0 -76 -4
-139 -9 -139 -4 0 -31 24 -59 53 -87 93 -132 205 -132 332 0 137 45 248 140
344 l55 56 3 -110 c2 -96 5 -112 24 -132 26 -28 68 -30 99 -4 l24 19 3 386 c3
454 7 434 -95 499 -257 165 -318 473 -140 707 l42 55 5 -150 c4 -123 8 -155
23 -177z m-402 -508 c118 -58 147 -61 234 -25 33 14 63 25 68 25 4 0 32 -16
62 -36 l55 -37 0 -166 0 -167 -64 -42 c-126 -83 -232 -234 -271 -387 -46 -181
6 -404 128 -552 87 -105 229 -194 357 -224 71 -16 209 -16 280 0 128 30 270
119 357 224 237 287 169 734 -143 939 l-64 42 0 167 0 166 55 37 c30 20 58 36
62 36 5 0 35 -11 68 -25 87 -36 116 -33 234 25 56 28 110 50 120 50 16 0 211
-188 211 -204 0 -3 -22 -50 -49 -104 -76 -152 -76 -147 3 -337 31 -75 55 -118
75 -135 17 -14 79 -41 138 -61 l108 -36 3 -156 3 -156 -88 -27 c-160 -48 -185
-68 -233 -189 -84 -210 -84 -199 -7 -352 l52 -103 -105 -105 c-57 -58 -111
-105 -118 -105 -7 0 -56 23 -109 51 -89 47 -101 50 -152 47 -68 -5 -261 -85
-302 -124 -20 -19 -40 -61 -65 -138 -20 -61 -42 -114 -48 -118 -14 -10 -278
-10 -292 0 -6 4 -28 57 -48 119 -42 127 -67 157 -158 191 -29 11 -79 32 -111
46 -90 40 -136 36 -250 -24 -52 -28 -101 -50 -109 -50 -7 0 -61 47 -118 105
l-105 105 52 103 c28 56 54 116 57 132 7 34 -6 80 -58 204 -58 140 -77 156
-239 206 l-88 26 3 156 3 156 108 36 c59 20 121 47 138 61 20 17 44 60 75 135
79 190 79 185 3 337 -27 54 -49 101 -49 104 0 16 195 204 211 204 10 0 64 -22
120 -50z m1078 -657 c135 -159 159 -368 64 -557 -24 -48 -117 -156 -134 -156
-5 0 -9 176 -9 390 0 382 0 390 19 380 11 -5 37 -31 60 -57z"/>
<path d="M1030 3941 c-106 -34 -161 -108 -161 -216 0 -186 216 -282 358 -160
110 94 94 277 -31 350 -47 27 -125 40 -166 26z m85 -153 c49 -22 44 -104 -8
-122 -21 -8 -35 -7 -55 5 -36 20 -43 78 -13 108 24 24 40 26 76 9z"/>
<path d="M3533 3938 c-48 -23 -51 -103 -4 -127 13 -7 136 -11 350 -11 318 0
332 1 351 20 30 30 27 83 -6 109 -26 20 -38 21 -348 20 -203 0 -329 -4 -343
-11z"/>
<path d="M3544 3570 c-26 -10 -54 -48 -54 -71 0 -9 9 -28 21 -43 l20 -26 343
0 c320 0 344 1 359 18 24 27 22 85 -4 108 -20 18 -42 19 -343 21 -176 1 -331
-2 -342 -7z"/>
<path d="M1022 3365 c-95 -29 -153 -108 -153 -207 0 -66 11 -95 53 -143 104
-119 293 -92 359 50 58 125 -16 273 -151 304 -55 13 -55 13 -108 -4z m111
-163 c22 -19 22 -70 0 -94 -32 -36 -105 -16 -114 32 -14 70 59 110 114 62z"/>
</g>
</svg>
